# File created by Blade
# Date/Time:  Wed Apr 08 17:00:17 2015
# Frame Rate: 120.000 fps
#------------------------------------------------------
:FULLY-SPECIFIED
:DEGREES
1927
root 0.895266 35.636444 2.870652 -29.294520 -79.138855 16.324584
Spine 8.144777 1.583582 -7.762413
Head 3.984221 10.770834 -2.624493
LeftShoulder 6.596240 -0.970554 25.960682
LeftArm 93.660994 44.397313 -36.987713
LeftForeArm -41.008536 0.000000 97.124277
LeftHand -34.992861 -0.000000 26.885965
LeftHandThumb1 -26.253704 0.000000 33.147579
RightShoulder 3.346537 -28.890205 -21.739013
RightArm 98.942835 20.493032 90.008109
RightForeArm 40.929954 -0.000000 2.834692
RightHand 2.052466 0.000000 -8.534322
RightHandThumb1 -24.326973 -0.000000 -32.862282
LeftUpLeg 15.434110 7.245397 5.839074
LeftLeg 11.418330 -0.000000 -0.000000
LeftFoot -14.291550 -3.121468 -12.171455
LeftToeBase 10.124280 -0.000000 -0.000000
RightUpLeg 24.839645 -18.054630 -18.589792
RightLeg 1.186510 -0.000000 -0.000000
RightFoot -11.680605 6.792877 20.629130
RightToeBase 14.743590 -0.000000 -0.000000
1928
root 0.902559 35.637223 2.869369 -29.230145 -79.108959 16.278153
Spine 8.158156 1.649163 -7.790297
Head 3.981220 10.713686 -2.566955
LeftShoulder 6.617467 -0.984624 25.996079
LeftArm 93.768789 44.420639 -36.864733
LeftForeArm -41.235307 0.000000 97.037328
LeftHand -34.969301 -0.000000 26.822974
LeftHandThumb1 -26.253704 0.000000 33.147579
RightShoulder 3.460649 -28.954712 -21.736007
RightArm 98.459875 20.614285 88.850093
RightForeArm 39.074163 -0.000000 2.899330
RightHand 1.646854 -0.000000 -7.980461
RightHandThumb1 -24.326973 -0.000000 -32.862282
LeftUpLeg 15.391551 7.232454 5.830633
LeftLeg 11.427826 -0.000000 -0.000000
LeftFoot -14.286133 -3.117353 -12.135099
LeftToeBase 10.097540 -0.000000 -0.000000
RightUpLeg 24.820522 -18.063244 -18.577116
RightLeg 1.182033 -0.000000 -0.000000
RightFoot -11.691305 6.760321 20.626540
RightToeBase 14.761169 -0.000000 -0.000000
1929
root 0.910624 35.638088 2.868597 -29.167298 -79.092112 16.233138
Spine 8.171334 1.720302 -7.806165
Head 3.975605 10.653891 -2.526173
LeftShoulder 6.636025 -0.984577 26.023633
LeftArm 93.913388 44.414209 -36.679451
LeftForeArm -41.487316 -0.000000 96.954678
LeftHand -34.988289 -0.000000 26.879646
LeftHandThumb1 -26.253704 0.000000 33.147579
RightShoulder 3.563819 -29.065375 -21.719403
RightArm 98.031716 20.734437 87.622942
RightForeArm 37.247908 -0.000000 2.967850
RightHand 1.149477 0.000000 -7.350457
RightHandThumb1 -24.326973 -0.000000 -32.862282
LeftUpLeg 15.351093 7.219913 5.824768
LeftLeg 11.435930 -0.000000 -0.000000
LeftFoot -14.275698 -3.118002 -12.116103
LeftToeBase 10.097148 -0.000000 -0.000000
RightUpLeg 24.792110 -18.066565 -18.560628
RightLeg 1.183177 -0.000000 -0.000000
RightFoot -11.693002 6.733600 20.620625
RightToeBase 14.774842 -0.000000 -0.000000
1930
root 0.918294 35.639153 2.867287 -29.113977 -79.068106 16.189194
Spine 8.200439 1.772779 -7.824021
Head 3.947943 10.594288 -2.502790
LeftShoulder 6.644280 -1.026298 26.056726
LeftArm 93.960942 44.431186 -36.613179
LeftForeArm -41.879987 -0.000000 96.907582
LeftHand -35.087358 -0.000000 26.937861
LeftHandThumb1 -26.253704 0.000000 33.147579
RightShoulder 3.676274 -29.168530 -21.718117
RightArm 97.659235 20.834242 86.467761
RightForeArm 35.254656 -0.000000 3.028679
RightHand 0.695378 -0.000000 -6.651923
RightHandThumb1 -24.326973 -0.000000 -32.862282
LeftUpLeg 15.313489 7.211342 5.822269
LeftLeg 11.451797 -0.000000 -0.000000
LeftFoot -14.253341 -3.131355 -12.111555
LeftToeBase 10.051156 -0.000000 -0.000000
RightUpLeg 24.771532 -18.061986 -18.543155
RightLeg 1.187431 -0.000000 -0.000000
RightFoot -11.696504 6.695065 20.614230
RightToeBase 14.740661 -0.000000 -0.000000
1931
root 0.926252 35.640531 2.867209 -29.078358 -79.053031 16.157427
Spine 8.234015 1.854523 -7.819920
Head 3.913892 10.433553 -2.487571
LeftShoulder 6.673885 -1.051680 26.075499
LeftArm 94.037262 44.430501 -36.495779
LeftForeArm -42.165280 -0.000000 96.857884
LeftHand -35.091857 -0.000000 26.898861
LeftHandThumb1 -26.253704 0.000000 33.147579
RightShoulder 3.765260 -29.279286 -21.701406
RightArm 97.093812 21.033865 84.851479
RightForeArm 33.552035 -0.000000 3.184970
RightHand 0.129572 -0.000000 -5.570447
RightHandThumb1 -24.326973 -0.000000 -32.862282
LeftUpLeg 15.290845 7.206162 5.817485
LeftLeg 11.453339 -0.000000 -0.000000
LeftFoot -14.239958 -3.138357 -12.097854
LeftToeBase 10.061617 -0.000000 -0.000000
RightUpLeg 24.747769 -18.057789 -18.533034
RightLeg 1.203945 -0.000000 -0.000000
RightFoot -11.695094 6.679144 20.624649
RightToeBase 14.759841 -0.000000 -0.000000
1932
root 0.934869 35.641200 2.866855 -29.032430 -79.031582 16.113190
Spine 8.280087 1.918302 -7.828519
Head 3.866355 10.360658 -2.481133
LeftShoulder 6.690416 -1.068334 26.116076
LeftArm 94.155715 44.412512 -36.346922
LeftForeArm -42.474530 0.000000 96.782424
LeftHand -34.938876 0.000000 26.883158
LeftHandThumb1 -26.253704 0.000000 33.147579
RightShoulder 3.849204 -29.366404 -21.674545
RightArm 96.654511 21.142251 83.484728
RightForeArm 31.802511 -0.000000 3.309071
RightHand -0.242797 -0.000000 -4.434242
RightHandThumb1 -24.326973 -0.000000 -32.862282
LeftUpLeg 15.258058 7.175296 5.805990
LeftLeg 11.473910 -0.000000 -0.000000
LeftFoot -14.243815 -3.128277 -12.090540
LeftToeBase 10.091466 -0.000000 -0.000000
RightUpLeg 24.726795 -18.051870 -18.522241
RightLeg 1.223147 -0.000000 -0.000000
RightFoot -11.699048 6.663224 20.638217
RightToeBase 14.747523 -0.000000 -0.000000
1933
root 0.940679 35.641799 2.864526 -29.003180 -79.028146 16.081235
Spine 8.328857 1.993951 -7.842688
Head 3.816024 10.341865 -2.478792
LeftShoulder 6.696367 -1.101265 26.176746
LeftArm 94.234777 44.419165 -36.228548
LeftForeArm -42.760619 -0.000000 96.733959
LeftHand -34.762809 -0.000000 26.777939
LeftHandThumb1 -26.253704 0.000000 33.147579
RightShoulder 3.937942 -29.438491 -21.660210
RightArm 96.281753 21.203814 82.348957
RightForeArm 29.669143 -0.000000 3.446826
RightHand -0.599156 -0.000000 -3.507758
RightHandThumb1 -24.326973 -0.000000 -32.862282
LeftUpLeg 15.247344 7.166101 5.811061
LeftLeg 11.475549 -0.000000 -0.000000
LeftFoot -14.226009 -3.135531 -12.094272
LeftToeBase 10.072676 -0.000000 -0.000000
RightUpLeg 24.714434 -18.050234 -18.509264
RightLeg 1.232236 -0.000000 -0.000000
RightFoot -11.708919 6.650796 20.634871
RightToeBase 14.773380 -0.000000 -0.000000
